<svg width="39" height="39" viewBox="0 0 39 39" fill="none" xmlns="http://www.w3.org/2000/svg">
<path fill-rule="evenodd" clip-rule="evenodd" d="M37.7812 24.5481C37.7812 18.2545 34.3054 12.7189 28.9258 9.71101L31.4584 5.15289C31.6937 4.72881 31.7509 4.22862 31.6174 3.76236C31.4839 3.29609 31.1707 2.90195 30.7466 2.66664C30.3225 2.43133 29.8224 2.37412 29.3561 2.5076C28.8898 2.64107 28.4957 2.95431 28.2604 3.37839L25.5548 8.24608C23.5974 7.62176 21.5545 7.30678 19.5 7.31251C17.4447 7.30652 15.401 7.6215 13.4428 8.24608L10.7372 3.37839C10.6265 3.15812 10.4725 2.96251 10.2843 2.8033C10.0961 2.6441 9.8777 2.5246 9.64214 2.45198C9.40659 2.37936 9.15878 2.35513 8.91362 2.38075C8.66846 2.40636 8.43101 2.48129 8.21556 2.60102C8.0001 2.72076 7.81108 2.88283 7.65986 3.07749C7.50865 3.27215 7.39836 3.49538 7.33564 3.73376C7.27291 3.97214 7.25904 4.22074 7.29486 4.46462C7.33067 4.7085 7.41544 4.94261 7.54406 5.15289L10.0742 9.71101C4.69462 12.7189 1.21875 18.2545 1.21875 24.5456C1.21875 26.5273 1.63069 28.453 2.71537 30.1373C3.80737 31.8362 5.37225 32.9599 7.09069 33.696C10.3033 35.0756 14.6737 35.3438 19.5 35.3438C24.3263 35.3438 28.6967 35.0756 31.9069 33.6985C33.6302 32.9623 35.1926 31.8386 36.2846 30.1397C37.3717 28.4554 37.7812 26.5298 37.7812 24.5481ZM4.875 24.5481C4.875 30.4688 9.75 31.6875 19.5 31.6875C29.25 31.6875 34.125 30.4688 34.125 24.5481C34.125 17.2356 28.0312 10.9688 19.5 10.9688C10.9688 10.9688 4.875 17.2331 4.875 24.5456M25.5938 27.4195C25.1089 27.4195 24.6439 27.2268 24.3011 26.884C23.9582 26.5412 23.7656 26.0762 23.7656 25.5913V21.9375C23.7656 21.4527 23.9582 20.9877 24.3011 20.6448C24.6439 20.302 25.1089 20.1094 25.5938 20.1094C26.0786 20.1094 26.5436 20.302 26.8864 20.6448C27.2293 20.9877 27.4219 21.4527 27.4219 21.9375V25.5938C27.4219 26.0786 27.2293 26.5436 26.8864 26.8864C26.5436 27.2293 26.0786 27.4219 25.5938 27.4219M11.5781 25.5938C11.5781 26.0786 11.7707 26.5436 12.1136 26.8864C12.4564 27.2293 12.9214 27.4219 13.4062 27.4219C13.8911 27.4219 14.3561 27.2293 14.6989 26.8864C15.0418 26.5436 15.2344 26.0786 15.2344 25.5938V21.9375C15.2344 21.4527 15.0418 20.9877 14.6989 20.6448C14.3561 20.302 13.8911 20.1094 13.4062 20.1094C12.9214 20.1094 12.4564 20.302 12.1136 20.6448C11.7707 20.9877 11.5781 21.4527 11.5781 21.9375V25.5938Z" fill="white"/>
</svg>
