<svg width="589" height="531" viewBox="0 0 589 531" fill="none" xmlns="http://www.w3.org/2000/svg">
<path fill-rule="evenodd" clip-rule="evenodd" d="M589 357.145C589 255.792 533.006 166.646 446.344 118.207L487.142 44.8023C490.933 37.9729 491.855 29.9177 489.704 22.409C487.554 14.9002 482.508 8.55295 475.676 4.76343C468.845 0.973916 460.787 0.0526037 453.276 2.20217C445.765 4.35173 439.415 9.39609 435.624 16.2255L392.038 94.6154C360.506 84.5612 327.597 79.4888 294.5 79.5812C261.39 79.4847 228.467 84.5572 196.922 94.6154L153.336 16.2255C151.554 12.6784 149.072 9.52813 146.041 6.96429C143.009 4.40045 139.49 2.47596 135.696 1.30654C131.901 0.137107 127.909 -0.253105 123.96 0.159366C120.01 0.571837 116.185 1.77847 112.714 3.70671C109.243 5.63495 106.198 8.24497 103.762 11.3798C101.326 14.5147 99.5499 18.1096 98.5394 21.9485C97.5289 25.7874 97.3054 29.7909 97.8824 33.7184C98.4594 37.6458 99.825 41.416 101.897 44.8023L142.656 118.207C55.9943 166.646 0 255.792 0 357.106C0 389.019 6.63606 420.029 24.1097 447.154C41.7012 474.514 66.9104 492.61 94.5934 504.464C146.347 526.682 216.752 531 294.5 531C372.248 531 442.653 526.682 494.367 504.504C522.129 492.649 547.299 474.553 564.89 447.193C582.403 420.069 589 389.058 589 357.145ZM392.667 403.386C384.856 403.386 377.365 400.284 371.842 394.763C366.319 389.242 363.217 381.754 363.217 373.945V315.104C363.217 307.296 366.319 299.808 371.842 294.287C377.365 288.765 384.856 285.664 392.667 285.664C400.477 285.664 407.968 288.765 413.491 294.287C419.014 299.808 422.117 307.296 422.117 315.104V373.985C422.117 381.793 419.014 389.281 413.491 394.802C407.968 400.323 400.477 403.425 392.667 403.425M166.883 373.985C166.883 381.793 169.986 389.281 175.509 394.802C181.032 400.323 188.523 403.425 196.333 403.425C204.144 403.425 211.635 400.323 217.158 394.802C222.681 389.281 225.783 381.793 225.783 373.985V315.104C225.783 307.296 222.681 299.808 217.158 294.287C211.635 288.765 204.144 285.664 196.333 285.664C188.523 285.664 181.032 288.765 175.509 294.287C169.986 299.808 166.883 307.296 166.883 315.104V373.985Z" fill="white"/>
</svg>
