<svg width="210" height="23" viewBox="0 0 210 23" fill="none" xmlns="http://www.w3.org/2000/svg">
<path d="M203.291 7.67578C203.027 7.67578 202.812 7.63672 202.646 7.55859C202.48 7.48047 202.349 7.38281 202.251 7.26562C202.153 7.14844 202.041 7.03125 201.914 6.91406C201.797 6.79688 201.606 6.69922 201.343 6.62109C201.079 6.54297 200.742 6.50391 200.332 6.50391C200.205 6.50391 200.049 6.51855 199.863 6.54785C199.688 6.56738 199.492 6.63086 199.277 6.73828C199.062 6.8457 198.955 6.98242 198.955 7.14844C198.955 7.33398 199.043 7.49512 199.219 7.63184C199.404 7.75879 199.609 7.85156 199.834 7.91016C200.068 7.95898 200.327 8.02246 200.61 8.10059C200.903 8.16895 201.108 8.23242 201.226 8.29102L203.379 8.81836C204.014 8.99414 204.585 9.17969 205.093 9.375C205.601 9.57031 206.138 9.83887 206.704 10.1807C207.28 10.5127 207.759 10.8838 208.14 11.2939C208.521 11.7041 208.838 12.2217 209.092 12.8467C209.346 13.4619 209.473 14.1406 209.473 14.8828C209.473 15.7812 209.355 16.582 209.121 17.2852V17.2559C208.916 17.8809 208.628 18.4424 208.257 18.9404C207.886 19.4287 207.446 19.8389 206.938 20.1709C206.431 20.4932 205.918 20.7666 205.4 20.9912C204.883 21.2061 204.282 21.3818 203.599 21.5186C202.925 21.6455 202.319 21.7432 201.782 21.8115C201.255 21.8701 200.645 21.9238 199.951 21.9727C196.875 21.8164 194.814 21.3281 193.77 20.5078V20.332C192.881 19.668 192.222 18.9453 191.792 18.1641C191.372 17.3828 191.123 16.5039 191.045 15.5273C191.045 15.293 191.152 15.1758 191.367 15.1758C191.426 15.1758 191.514 15.1807 191.631 15.1904C191.748 15.2002 191.836 15.2051 191.895 15.2051H193.389C193.525 15.1855 193.721 15.1758 193.975 15.1758H194.355C194.434 15.1758 194.502 15.1855 194.561 15.2051C195.127 15.1855 196.094 15.1758 197.461 15.1758H198.135C198.33 15.1758 198.481 15.2344 198.589 15.3516C198.696 15.4688 198.779 15.6152 198.838 15.791C198.906 15.957 198.979 16.1279 199.058 16.3037C199.146 16.4697 199.297 16.6113 199.512 16.7285C199.727 16.8457 200.01 16.9043 200.361 16.9043C200.742 16.9043 201.084 16.8066 201.387 16.6113C201.699 16.4062 201.855 16.1133 201.855 15.7324C201.855 15.5566 201.772 15.3906 201.606 15.2344C201.44 15.0781 201.191 14.9365 200.859 14.8096C200.527 14.6826 200.229 14.5801 199.966 14.502C199.712 14.4238 199.365 14.3311 198.926 14.2236C198.486 14.1162 198.203 14.043 198.076 14.0039H197.197C195.078 13.3789 193.55 12.5879 192.612 11.6309C191.685 10.6641 191.221 9.44336 191.221 7.96875C191.221 6.99219 191.401 6.11328 191.763 5.33203C192.134 4.55078 192.617 3.91113 193.213 3.41309C193.818 2.91504 194.526 2.5 195.337 2.16797C196.147 1.82617 196.973 1.58691 197.812 1.4502C198.652 1.30371 199.521 1.23047 200.42 1.23047C202.012 1.23047 203.486 1.49902 204.844 2.03613C206.211 2.56348 207.246 3.25195 207.949 4.10156C208.203 4.35547 208.408 4.67773 208.564 5.06836C208.721 5.45898 208.818 5.77148 208.857 6.00586C208.906 6.23047 208.965 6.61133 209.033 7.14844L208.623 7.73438H206.133C205.859 7.73438 205.405 7.72461 204.771 7.70508C204.136 7.68555 203.643 7.67578 203.291 7.67578Z" fill="white"/>
<path d="M174.785 3.22266C174.785 2.63672 174.81 2.29492 174.858 2.19727C174.946 2.06055 175.088 1.99219 175.283 1.99219H175.635C175.791 1.99219 175.898 2.00195 175.957 2.02148H176.719C177.705 2.02148 179.194 1.99707 181.187 1.94824C183.188 1.89941 184.688 1.875 185.684 1.875H189.58C189.834 1.9043 189.961 2.03125 189.961 2.25586V7.14844C189.951 7.20703 189.932 7.26074 189.902 7.30957C189.883 7.34863 189.863 7.37793 189.844 7.39746C189.834 7.40723 189.79 7.44141 189.712 7.5C189.634 7.54883 189.58 7.58789 189.551 7.61719H182.754V9.43359H183.398C183.965 9.43359 184.829 9.41406 185.991 9.375C187.153 9.33594 188.047 9.31641 188.672 9.31641C188.945 9.31641 189.131 9.37012 189.229 9.47754C189.326 9.58496 189.375 9.73633 189.375 9.93164C189.375 9.98047 189.365 10.0635 189.346 10.1807C189.326 10.2979 189.316 10.3809 189.316 10.4297V10.9863C189.316 11.0254 189.321 11.1084 189.331 11.2354C189.341 11.3525 189.346 11.4551 189.346 11.543V11.9531C189.346 12.168 189.355 12.3828 189.375 12.5977C189.395 12.8125 189.404 12.998 189.404 13.1543V13.5352C189.355 13.6523 189.316 13.7305 189.287 13.7695C189.258 13.8086 189.209 13.8281 189.141 13.8281V13.7988C188.779 13.7988 188.154 13.8232 187.266 13.8721C186.387 13.9209 185.684 13.9453 185.156 13.9453H182.812V15.8203C182.891 15.8203 183.008 15.8252 183.164 15.835C183.32 15.8447 183.438 15.8496 183.516 15.8496C183.955 15.8496 184.604 15.835 185.464 15.8057C186.323 15.7764 186.943 15.7617 187.324 15.7617H189.199C189.707 15.7617 190.029 15.8203 190.166 15.9375C190.215 15.9961 190.254 16.0547 190.283 16.1133V20.8008C190.283 21.0059 190.244 21.1621 190.166 21.2695C190.088 21.377 189.941 21.4355 189.727 21.4453H175.225L174.785 21.0645V3.22266Z" fill="white"/>
<path d="M163.711 21.5918V2.34375C163.721 2.26562 163.799 2.19727 163.945 2.13867C164.092 2.07031 164.18 2.02148 164.209 1.99219H172.09V21.0645C172.041 21.2695 171.992 21.4111 171.943 21.4893C171.904 21.5576 171.836 21.5918 171.738 21.5918H163.711Z" fill="white"/>
<path d="M150.732 1.81641C152.07 1.81641 153.271 1.9043 154.336 2.08008C155.41 2.25586 156.436 2.56836 157.412 3.01758C158.398 3.4668 159.219 4.05273 159.873 4.77539C160.527 5.49805 161.045 6.43555 161.426 7.58789C161.816 8.74023 162.012 10.0781 162.012 11.6016C162.012 12.7148 161.88 13.7549 161.616 14.7217C161.353 15.6787 160.991 16.5039 160.532 17.1973C160.073 17.8906 159.546 18.5107 158.95 19.0576C158.364 19.5947 157.725 20.0342 157.031 20.376C156.338 20.7178 155.645 20.9814 154.951 21.167C154.258 21.3525 153.564 21.4648 152.871 21.5039H142.822V2.05078C142.852 2.05078 142.905 2.05566 142.983 2.06543C143.062 2.0752 143.115 2.08008 143.145 2.08008C143.564 2.08008 144.199 2.03613 145.049 1.94824C145.908 1.86035 146.553 1.81641 146.982 1.81641H150.732ZM150.908 16.9336C151.406 16.9336 151.846 16.8555 152.227 16.6992C152.607 16.5332 152.91 16.2988 153.135 15.9961C153.369 15.6934 153.56 15.376 153.706 15.0439C153.862 14.7119 153.975 14.3213 154.043 13.8721C154.111 13.4229 154.155 13.0322 154.175 12.7002C154.204 12.3584 154.219 11.9727 154.219 11.543V10.4883C154.209 10.4199 154.18 10.0879 154.131 9.49219C154.082 8.89648 153.975 8.38867 153.809 7.96875C153.652 7.66602 153.477 7.40723 153.281 7.19238C153.096 6.96777 152.91 6.79688 152.725 6.67969C152.539 6.55273 152.319 6.45996 152.065 6.40137C151.821 6.33301 151.597 6.28906 151.392 6.26953C151.187 6.25 150.938 6.24023 150.645 6.24023V6.5625H150.205V16.9336H150.908Z" fill="white"/>
<path d="M129.404 1.81641C130.742 1.81641 131.943 1.9043 133.008 2.08008C134.082 2.25586 135.107 2.56836 136.084 3.01758C137.07 3.4668 137.891 4.05273 138.545 4.77539C139.199 5.49805 139.717 6.43555 140.098 7.58789C140.488 8.74023 140.684 10.0781 140.684 11.6016C140.684 12.7148 140.552 13.7549 140.288 14.7217C140.024 15.6787 139.663 16.5039 139.204 17.1973C138.745 17.8906 138.218 18.5107 137.622 19.0576C137.036 19.5947 136.396 20.0342 135.703 20.376C135.01 20.7178 134.316 20.9814 133.623 21.167C132.93 21.3525 132.236 21.4648 131.543 21.5039H121.494V2.05078C121.523 2.05078 121.577 2.05566 121.655 2.06543C121.733 2.0752 121.787 2.08008 121.816 2.08008C122.236 2.08008 122.871 2.03613 123.721 1.94824C124.58 1.86035 125.225 1.81641 125.654 1.81641H129.404ZM129.58 16.9336C130.078 16.9336 130.518 16.8555 130.898 16.6992C131.279 16.5332 131.582 16.2988 131.807 15.9961C132.041 15.6934 132.231 15.376 132.378 15.0439C132.534 14.7119 132.646 14.3213 132.715 13.8721C132.783 13.4229 132.827 13.0322 132.847 12.7002C132.876 12.3584 132.891 11.9727 132.891 11.543V10.4883C132.881 10.4199 132.852 10.0879 132.803 9.49219C132.754 8.89648 132.646 8.38867 132.48 7.96875C132.324 7.66602 132.148 7.40723 131.953 7.19238C131.768 6.96777 131.582 6.79688 131.396 6.67969C131.211 6.55273 130.991 6.45996 130.737 6.40137C130.493 6.33301 130.269 6.28906 130.063 6.26953C129.858 6.25 129.609 6.24023 129.316 6.24023V6.5625H128.877V16.9336H129.58Z" fill="white"/>
<path d="M99.9902 5.41992C99.9512 5.22461 99.9316 4.66797 99.9316 3.75C99.9316 2.69531 100.029 2.07031 100.225 1.875H108.193V14.1797C108.193 15.4492 108.564 16.084 109.307 16.084C109.619 16.084 109.878 15.9473 110.083 15.6738C110.288 15.3906 110.391 15.0586 110.391 14.6777V12.5098C110.449 8.23242 110.479 6.07422 110.479 6.03516C110.479 4.33594 110.459 3.10547 110.42 2.34375C110.42 2.07031 110.557 1.875 110.83 1.75781H118.975V4.04297C118.848 7.74414 118.77 10.127 118.74 11.1914V12.0996C118.74 12.2168 118.735 12.373 118.726 12.5684C118.716 12.7637 118.711 12.9004 118.711 12.9785C118.711 13.3105 118.721 13.5449 118.74 13.6816V14.8242C118.74 16.1816 118.604 17.1582 118.33 17.7539V17.8125C118.018 18.5449 117.568 19.1797 116.982 19.7168C116.396 20.2441 115.728 20.6592 114.976 20.9619C114.224 21.2549 113.452 21.4697 112.661 21.6064C111.87 21.7334 111.035 21.7969 110.156 21.7969C109.883 21.7969 109.678 21.7676 109.541 21.709H109.189C109.189 21.8066 109.043 21.8555 108.75 21.8555V21.8848C108.535 21.8945 107.91 21.8457 106.875 21.7383H106.201C105.586 21.6699 104.99 21.5332 104.414 21.3281C103.848 21.123 103.296 20.835 102.759 20.4639C102.222 20.083 101.748 19.6338 101.338 19.1162C100.938 18.5986 100.61 17.9688 100.356 17.2266C100.103 16.4844 99.9609 15.6738 99.9316 14.7949C99.9414 14.2871 99.9414 13.584 99.9316 12.6855C99.9316 11.7871 99.9365 10.9717 99.9463 10.2393C99.9561 9.49707 99.9805 8.7793 100.02 8.08594V7.67578C100.02 7.62695 100.024 7.54883 100.034 7.44141C100.044 7.33398 100.049 7.25586 100.049 7.20703C100.049 7.06055 100.039 6.84082 100.02 6.54785C100 6.25488 99.9902 6.03516 99.9902 5.88867V5.39062V5.41992Z" fill="white"/>
<path d="M77.1094 20.1562V0.439453L89.7656 0C90.5469 0 91.2793 0.0488281 91.9629 0.146484C92.6465 0.244141 93.335 0.429688 94.0283 0.703125C94.7314 0.966797 95.3271 1.31348 95.8154 1.74316C96.3135 2.16309 96.7188 2.72461 97.0312 3.42773C97.3438 4.13086 97.5 4.94141 97.5 5.85938C97.5 7.08008 97.2314 8.07129 96.6943 8.83301C96.1572 9.58496 95.3516 10.2539 94.2773 10.8398C95.5371 11.1914 96.4941 11.8018 97.1484 12.6709C97.8125 13.5303 98.1445 14.6191 98.1445 15.9375C98.1445 16.9141 97.959 17.793 97.5879 18.5742C97.2168 19.3457 96.7383 19.9756 96.1523 20.4639C95.5664 20.9521 94.8779 21.3574 94.0869 21.6797C93.2959 22.002 92.5098 22.2266 91.7285 22.3535C90.957 22.4902 90.166 22.5586 89.3555 22.5586C88.8867 22.5586 88.1787 22.5488 87.2314 22.5293C86.2939 22.5098 85.5859 22.5 85.1074 22.5C82.3926 22.5 79.9023 22.5391 77.6367 22.6172C77.3145 22.0996 77.1387 21.2793 77.1094 20.1562ZM85.5176 5.33203C85.5176 5.77148 85.5322 6.42578 85.5615 7.29492C85.5908 8.16406 85.6055 8.81836 85.6055 9.25781C85.6055 9.44336 85.7227 9.55078 85.957 9.58008C86.0938 9.56055 86.3281 9.53125 86.6602 9.49219C87.002 9.44336 87.2705 9.4043 87.4658 9.375C87.6611 9.3457 87.8955 9.27734 88.1689 9.16992C88.4521 9.05273 88.6719 8.91602 88.8281 8.75977C88.9844 8.60352 89.1211 8.37891 89.2383 8.08594C89.3555 7.7832 89.4141 7.43164 89.4141 7.03125C89.4141 5.54688 88.3887 4.80469 86.3379 4.80469C85.9277 4.87305 85.6885 4.94141 85.6201 5.00977C85.5518 5.08789 85.5176 5.19531 85.5176 5.33203ZM85.7812 16.4941C85.7812 17.2168 85.8203 17.5781 85.8984 17.5781H86.3672C86.748 17.5781 87.0752 17.5684 87.3486 17.5488C87.6318 17.5195 87.9346 17.4561 88.2568 17.3584C88.5791 17.2607 88.8379 17.1289 89.0332 16.9629C89.2285 16.7871 89.3945 16.543 89.5312 16.2305C89.668 15.918 89.7363 15.5469 89.7363 15.1172C89.7363 14.873 89.7119 14.6484 89.6631 14.4434C89.6143 14.2383 89.5361 14.0625 89.4287 13.916C89.3213 13.7695 89.2139 13.6426 89.1064 13.5352C89.0088 13.4277 88.8623 13.3398 88.667 13.2715C88.4814 13.1934 88.3252 13.1348 88.1982 13.0957C88.0811 13.0469 87.9004 13.0078 87.6562 12.9785C87.4121 12.9492 87.2363 12.9297 87.1289 12.9199C87.0215 12.9102 86.8359 12.9004 86.5723 12.8906C86.3086 12.8711 86.1426 12.8613 86.0742 12.8613V13.418C86.0645 13.5254 86.0107 13.8867 85.9131 14.502C85.8252 15.1172 85.7812 15.6055 85.7812 15.9668V16.4941Z" fill="white"/>
<path d="M50.8887 3.22266C50.8887 2.63672 50.9131 2.29492 50.9619 2.19727C51.0498 2.06055 51.1914 1.99219 51.3867 1.99219H51.7383C51.8945 1.99219 52.002 2.00195 52.0605 2.02148H52.8223C53.8086 2.02148 55.2979 1.99707 57.29 1.94824C59.292 1.89941 60.791 1.875 61.7871 1.875H65.6836C65.9375 1.9043 66.0645 2.03125 66.0645 2.25586V7.14844C66.0547 7.20703 66.0352 7.26074 66.0059 7.30957C65.9863 7.34863 65.9668 7.37793 65.9473 7.39746C65.9375 7.40723 65.8936 7.44141 65.8154 7.5C65.7373 7.54883 65.6836 7.58789 65.6543 7.61719H58.8574V9.43359H59.502C60.0684 9.43359 60.9326 9.41406 62.0947 9.375C63.2568 9.33594 64.1504 9.31641 64.7754 9.31641C65.0488 9.31641 65.2344 9.37012 65.332 9.47754C65.4297 9.58496 65.4785 9.73633 65.4785 9.93164C65.4785 9.98047 65.4688 10.0635 65.4492 10.1807C65.4297 10.2979 65.4199 10.3809 65.4199 10.4297V10.9863C65.4199 11.0254 65.4248 11.1084 65.4346 11.2354C65.4443 11.3525 65.4492 11.4551 65.4492 11.543V11.9531C65.4492 12.168 65.459 12.3828 65.4785 12.5977C65.498 12.8125 65.5078 12.998 65.5078 13.1543V13.5352C65.459 13.6523 65.4199 13.7305 65.3906 13.7695C65.3613 13.8086 65.3125 13.8281 65.2441 13.8281V13.7988C64.8828 13.7988 64.2578 13.8232 63.3691 13.8721C62.4902 13.9209 61.7871 13.9453 61.2598 13.9453H58.916V15.8203C58.9941 15.8203 59.1113 15.8252 59.2676 15.835C59.4238 15.8447 59.541 15.8496 59.6191 15.8496C60.0586 15.8496 60.708 15.835 61.5674 15.8057C62.4268 15.7764 63.0469 15.7617 63.4277 15.7617H65.3027C65.8105 15.7617 66.1328 15.8203 66.2695 15.9375C66.3184 15.9961 66.3574 16.0547 66.3867 16.1133V20.8008C66.3867 21.0059 66.3477 21.1621 66.2695 21.2695C66.1914 21.377 66.0449 21.4355 65.8301 21.4453H51.3281L50.8887 21.0645V3.22266Z" fill="white"/>
<path d="M32.373 7.32422V2.05078H49.4238C49.5801 2.08008 49.6777 2.14355 49.7168 2.24121C49.7559 2.3291 49.7754 2.46094 49.7754 2.63672V7.32422C49.7559 7.55859 49.6191 7.67578 49.3652 7.67578H45.2051V21.1523C45.2051 21.1621 45.2002 21.1865 45.1904 21.2256C45.1807 21.2646 45.1758 21.2891 45.1758 21.2988C45.1758 21.3086 45.1709 21.3281 45.1611 21.3574C45.1514 21.3867 45.1416 21.4062 45.1318 21.416C45.1221 21.4258 45.1123 21.4453 45.1025 21.4746C45.0928 21.4941 45.0781 21.5088 45.0586 21.5186C45.0488 21.5186 45.0293 21.5283 45 21.5479C44.9805 21.5576 44.9561 21.5674 44.9268 21.5771C44.9072 21.5869 44.8779 21.5967 44.8389 21.6064C44.8096 21.6064 44.7754 21.6113 44.7363 21.6211H43.7988C42.5488 21.6211 41.9238 21.582 41.9238 21.5039C41.8457 21.5039 41.7285 21.5088 41.5723 21.5186C41.416 21.5283 41.2988 21.5332 41.2207 21.5332H40.0488C39.8242 21.5332 39.502 21.5381 39.082 21.5479C38.6719 21.5576 38.3496 21.5625 38.1152 21.5625H37.2949L36.709 21.1523V17.9883C36.7188 17.4219 36.7578 16.2109 36.8262 14.3555C36.9043 12.5 36.9434 11.0352 36.9434 9.96094V9.58008C36.9434 9.50195 36.9482 9.37988 36.958 9.21387C36.9678 9.04785 36.9727 8.92578 36.9727 8.84766C36.9727 8.75977 36.9678 8.58398 36.958 8.32031C36.9482 8.04688 36.9434 7.87109 36.9434 7.79297H33.2812C33.0664 7.79297 32.8613 7.75879 32.666 7.69043C32.4707 7.6123 32.373 7.49023 32.373 7.32422Z" fill="white"/>
<path d="M22.7051 21.5918V2.34375C22.7148 2.26562 22.793 2.19727 22.9395 2.13867C23.0859 2.07031 23.1738 2.02148 23.2031 1.99219H31.084V21.0645C31.0352 21.2695 30.9863 21.4111 30.9375 21.4893C30.8984 21.5576 30.8301 21.5918 30.7324 21.5918H22.7051Z" fill="white"/>
<path d="M0 20.1562V0.439453L12.6562 0C13.4375 0 14.1699 0.0488281 14.8535 0.146484C15.5371 0.244141 16.2256 0.429688 16.9189 0.703125C17.6221 0.966797 18.2178 1.31348 18.7061 1.74316C19.2041 2.16309 19.6094 2.72461 19.9219 3.42773C20.2344 4.13086 20.3906 4.94141 20.3906 5.85938C20.3906 7.08008 20.1221 8.07129 19.585 8.83301C19.0479 9.58496 18.2422 10.2539 17.168 10.8398C18.4277 11.1914 19.3848 11.8018 20.0391 12.6709C20.7031 13.5303 21.0352 14.6191 21.0352 15.9375C21.0352 16.9141 20.8496 17.793 20.4785 18.5742C20.1074 19.3457 19.6289 19.9756 19.043 20.4639C18.457 20.9521 17.7686 21.3574 16.9775 21.6797C16.1865 22.002 15.4004 22.2266 14.6191 22.3535C13.8477 22.4902 13.0566 22.5586 12.2461 22.5586C11.7773 22.5586 11.0693 22.5488 10.1221 22.5293C9.18457 22.5098 8.47656 22.5 7.99805 22.5C5.2832 22.5 2.79297 22.5391 0.527344 22.6172C0.205078 22.0996 0.0292969 21.2793 0 20.1562ZM8.4082 5.33203C8.4082 5.77148 8.42285 6.42578 8.45215 7.29492C8.48145 8.16406 8.49609 8.81836 8.49609 9.25781C8.49609 9.44336 8.61328 9.55078 8.84766 9.58008C8.98438 9.56055 9.21875 9.53125 9.55078 9.49219C9.89258 9.44336 10.1611 9.4043 10.3564 9.375C10.5518 9.3457 10.7861 9.27734 11.0596 9.16992C11.3428 9.05273 11.5625 8.91602 11.7188 8.75977C11.875 8.60352 12.0117 8.37891 12.1289 8.08594C12.2461 7.7832 12.3047 7.43164 12.3047 7.03125C12.3047 5.54688 11.2793 4.80469 9.22852 4.80469C8.81836 4.87305 8.5791 4.94141 8.51074 5.00977C8.44238 5.08789 8.4082 5.19531 8.4082 5.33203ZM8.67188 16.4941C8.67188 17.2168 8.71094 17.5781 8.78906 17.5781H9.25781C9.63867 17.5781 9.96582 17.5684 10.2393 17.5488C10.5225 17.5195 10.8252 17.4561 11.1475 17.3584C11.4697 17.2607 11.7285 17.1289 11.9238 16.9629C12.1191 16.7871 12.2852 16.543 12.4219 16.2305C12.5586 15.918 12.627 15.5469 12.627 15.1172C12.627 14.873 12.6025 14.6484 12.5537 14.4434C12.5049 14.2383 12.4268 14.0625 12.3193 13.916C12.2119 13.7695 12.1045 13.6426 11.9971 13.5352C11.8994 13.4277 11.7529 13.3398 11.5576 13.2715C11.3721 13.1934 11.2158 13.1348 11.0889 13.0957C10.9717 13.0469 10.791 13.0078 10.5469 12.9785C10.3027 12.9492 10.127 12.9297 10.0195 12.9199C9.91211 12.9102 9.72656 12.9004 9.46289 12.8906C9.19922 12.8711 9.0332 12.8613 8.96484 12.8613V13.418C8.95508 13.5254 8.90137 13.8867 8.80371 14.502C8.71582 15.1172 8.67188 15.6055 8.67188 15.9668V16.4941Z" fill="white"/>
</svg>
